# xmcd
#
# Track frame offsets: 
#        150
#        16175
#        32067
#        49877
#        67947
#        86927
#        88465
#        105505
#        125185
#        140410
#        156002
#        170910
#
# Disc length: 2537 seconds
#
# Revision: 2
# Processed by: cddbd v1.5.2PL0 Copyright (c) Steve Scherf et al.
# Submitted via: ExactAudioCopy v0.99pb5
#
DISCID=a809e70c
DTITLE=Søren Sko - Shine
DYEAR=2000
DGENRE=West Coast
TTITLE0=Maybe we could make it
TTITLE1=The man is a boy
TTITLE2=Right here waiting
TTITLE3=In your eyes
TTITLE4=Whatever it takes
TTITLE5=When you were nice - Interlude
TTITLE6=Fire and water
TTITLE7=Jealous
TTITLE8=One step only
TTITLE9=Zip your flies up
TTITLE10=Simple loving
TTITLE11=If you love her
EXTD=
EXTT0=
EXTT1=
EXTT2=
EXTT3=
EXTT4=
EXTT5=
EXTT6=
EXTT7=
EXTT8=
EXTT9=
EXTT10=
EXTT11=
PLAYORDER=
